<svg width="32" height="32" viewBox="0 0 32 32" fill="none" xmlns="http://www.w3.org/2000/svg">
<path d="M26.7409 1.45166H5.25956C3.15651 1.45166 1.45166 3.15651 1.45166 5.25956V26.7409C1.45166 28.8439 3.15651 30.5488 5.25956 30.5488H26.7409C28.8439 30.5488 30.5488 28.8439 30.5488 26.7409V5.25956C30.5488 3.15651 28.8439 1.45166 26.7409 1.45166Z" fill="#1E1E1E"/>
<path fill-rule="evenodd" clip-rule="evenodd" d="M5.25934 2.90288C3.9579 2.90288 2.90288 3.9579 2.90288 5.25934V26.7407C2.90288 28.0421 3.9579 29.0971 5.25934 29.0971H26.7407C28.0421 29.0971 29.0971 28.0421 29.0971 26.7407V5.25934C29.0971 3.9579 28.0421 2.90288 26.7407 2.90288H5.25934ZM0 5.25934C0 2.35469 2.35469 0 5.25934 0H26.7407C29.6453 0 32 2.35469 32 5.25934V26.7407C32 29.6453 29.6453 32 26.7407 32H5.25934C2.35469 32 0 29.6453 0 26.7407V5.25934Z" fill="#EBD21D"/>
<path d="M8.81104 16.4954H10.4162V18.1005H8.81104V16.4954Z" fill="#ECD21C"/>
<path d="M19.1079 16.0001L8.87988 12.3813V8.98193L23.1894 14.4649V17.5597L8.87988 23.0182V19.631L19.1079 16.0001Z" fill="#ECD21C"/>
</svg>
