<svg width="55" height="54" viewBox="0 0 55 54" fill="none" xmlns="http://www.w3.org/2000/svg">
<path d="M27.5 54C42.4117 54 54.5 41.9117 54.5 27C54.5 12.0883 42.4117 0 27.5 0C12.5883 0 0.5 12.0883 0.5 27C0.5 41.9117 12.5883 54 27.5 54Z" fill="white"/>
<path d="M9.5 18.9C14.4702 18.9 18.5 14.8702 18.5 9.90002C18.5 14.8702 22.5298 18.9 27.5 18.9C27.5 23.8702 23.4703 27.9 18.5 27.9C13.5298 27.9 9.5 23.8702 9.5 18.9Z" fill="#102A08"/>
<path d="M36.5 9.90002C36.5 14.8702 40.5298 18.9 45.5 18.9C40.5298 18.9 36.5 22.9299 36.5 27.9C31.5298 27.9 27.5 23.8702 27.5 18.9C27.5 13.9298 31.5298 9.90002 36.5 9.90002Z" fill="#102A08"/>
<path d="M45.5 36.9C40.5298 36.9 36.5 40.9299 36.5 45.9C36.5 40.9299 32.4702 36.9 27.5 36.9C27.5 31.9299 31.5298 27.9 36.5 27.9C41.4703 27.9 45.5 31.9299 45.5 36.9Z" fill="#102A08"/>
<path d="M18.5 45.9C18.5 40.9299 14.4702 36.9 9.5 36.9C14.4702 36.9 18.5 32.8702 18.5 27.9C23.4703 27.9 27.5 31.9299 27.5 36.9C27.5 41.8702 23.4703 45.9 18.5 45.9Z" fill="#102A08"/>
</svg>
