<svg width="55" height="54" viewBox="0 0 55 54" fill="none" xmlns="http://www.w3.org/2000/svg">
<path d="M27.5783 53.9581C13.8396 54.8127 0.285528 42.4909 0.502572 26.8014C0.713531 11.6235 12.2716 0 27.5377 0C42.8586 0 54.297 11.6702 54.4978 27.0531C54.6946 42.0951 41.534 54.7315 27.5763 53.9581H27.5783ZM27.6229 2.95358C14.7605 2.85005 3.64667 13.7671 3.48642 26.6614C3.32414 39.649 14.4177 50.9599 27.3937 51.039C40.2885 51.1182 51.3456 40.128 51.4957 27.0836C51.6458 14.1467 40.676 3.05913 27.6229 2.95358Z" fill="white"/>
<path d="M29.9802 17.5428C29.826 16.8384 29.6739 16.136 29.4933 15.3078C32.9153 14.3578 35.601 12.4862 36.5807 9.04541C39.8587 11.3778 43.0251 13.6311 46.4999 16.1056C43.727 25.6118 40.8547 35.4794 35.9641 44.7137C35.9641 41.4942 36.1953 38.2564 35.9134 35.0633C35.3982 29.2353 33.2196 23.8559 30.8139 18.5801C30.6354 18.1883 30.2621 17.8838 29.9781 17.5387V17.5428H29.9802Z" fill="white"/>
<path d="M24.8195 15.5372C19.0202 24.3959 18.2819 34.6979 17.9695 45.1989C13.3872 35.7109 9.16196 26.1234 8.40332 15.5413C12.1255 14.0127 15.6591 12.5634 19.0993 11.1505C20.8235 12.472 22.7221 13.9295 24.8216 15.5372H24.8195Z" fill="white"/>
<path d="M29.9804 17.5388C28.7979 26.7162 29.5423 36.0986 27.0372 45.1319C26.7512 46.1651 26.4002 47.1821 25.6801 48.1626C25.5605 45.9905 25.5523 43.8063 25.2968 41.6525C24.7673 37.1948 23.9762 32.7675 23.5523 28.3016C23.3292 25.957 23.6578 23.5616 23.7349 21.1907C23.7754 19.924 24.2724 19.3962 25.6842 19.2033C27.165 19.0003 28.5524 18.1254 29.9804 17.5428V17.5367V17.5388Z" fill="white"/>
</svg>
