<svg width="54" height="54" viewBox="0 0 54 54" fill="none" xmlns="http://www.w3.org/2000/svg">
<circle cx="27" cy="27" r="27" fill="#ECEAFD"/>
<circle cx="27" cy="27" r="26.5" stroke="#52548F" stroke-opacity="0.1"/>
<path d="M25.7189 24.0719C27.6638 25.5845 29.8745 26.7149 31.6698 28.4436C34.5454 31.2195 35.9251 34.9596 34.1465 38.816C32.2848 42.8386 27.6638 45.9802 22.3778 44.7169C17.8898 43.6364 14.7814 39.7967 14.6318 35.159C14.5653 33.048 14.9809 31.0699 16.078 29.2581C16.2774 28.9423 16.2608 28.7594 15.9117 28.5766C15.6458 28.4436 15.2136 28.3272 15.2302 28.0447C15.2468 27.7621 15.6956 27.7122 15.9782 27.5626C17.3246 26.8645 18.6711 26.1663 20.0175 25.4848C20.2003 25.3851 20.3665 25.2521 20.6491 25.2521C20.566 27.2634 20.4829 29.2581 20.3832 31.3026C19.951 31.1697 19.6352 30.9203 19.3027 30.6876C19.0201 30.4881 18.8705 30.4715 18.6711 30.804C16.3772 34.7933 18.0726 40.661 23.2256 41.7747C26.5002 42.4895 29.4424 40.661 30.8553 38.4669C32.4843 35.9237 32.1851 33.3804 30.0408 31.0865C29.592 30.6045 29.1099 30.1391 28.6279 29.6736C28.312 28.5932 27.6305 27.6956 27.1318 26.6982C26.6664 25.8339 26.068 25.0194 25.7189 24.0719Z" fill="#8D8EF9"/>
<path d="M25.7189 24.0719C26.068 25.0193 26.6664 25.8338 27.1152 26.7481C27.6139 27.7454 28.2954 28.643 28.6112 29.7235C27.298 28.8259 25.9516 27.9449 24.6717 26.9974C23.1923 25.917 21.9789 24.5872 21.1145 22.9582C19.8678 20.5812 19.7016 18.0878 20.8153 15.6277C22.3778 12.1204 25.0706 9.82648 28.8605 9.14497C32.933 8.39696 37.0221 10.6077 38.9171 14.2979C40.6458 17.6556 40.4962 20.9801 38.6677 24.2381C38.3187 24.8531 38.4018 25.1357 39.0002 25.385C39.2495 25.4848 39.449 25.6676 39.7981 25.8837C37.9197 26.8478 36.1079 27.7787 34.1963 28.776C34.2794 26.665 34.3625 24.6537 34.4623 22.526C34.828 22.7587 35.1272 22.9249 35.4098 23.1244C35.6923 23.3239 35.8586 23.2906 36.0414 22.9914C38.1358 19.6669 37.2382 15.2288 33.9968 13.0512C31.3539 11.2726 27.9629 11.6383 25.5361 13.9488C24.6052 14.8298 23.8239 15.8105 23.3751 17.0406C22.5108 19.4342 23.292 21.4289 24.8712 23.2241C25.1371 23.5233 25.4363 23.7893 25.7189 24.0719Z" fill="#51559C"/>
</svg>
