<svg width="55" height="54" viewBox="0 0 55 54" fill="none" xmlns="http://www.w3.org/2000/svg">
<g id="Frame">
<path id="Vector" d="M53.839 27.3511C53.839 34.3579 51.0555 41.0778 46.1009 46.0325C41.1463 50.9871 34.4264 53.7705 27.4195 53.7705C20.4126 53.7705 13.6927 50.9871 8.73809 46.0325C3.78348 41.0778 1 34.3579 1 27.3511C1 20.3424 3.78419 13.6208 8.74007 8.66487C13.696 3.70899 20.4176 0.924805 27.4262 0.924805C34.4349 0.924805 41.1565 3.70899 46.1124 8.66487C51.0683 13.6208 53.8525 20.3424 53.8525 27.3511H53.839Z" fill="#367EC7"/>
<path id="Vector_2" d="M34.3581 9.88196L30.3486 13.797L36.1131 19.521H21.6141L21.3036 19.8315L8.33008 32.7375L21.3171 45.6435L25.4346 41.5395L19.7376 35.8695L34.2366 35.5725H34.4796L47.3451 22.788L34.3581 9.88196ZM33.1971 28.9305L19.8591 29.1735L23.0721 25.9875H36.1131L33.1971 28.944V28.9305Z" fill="white"/>
</g>
</svg>
