<svg width="55" height="54" viewBox="0 0 55 54" fill="none" xmlns="http://www.w3.org/2000/svg">
<g id="Group 48096019">
<circle id="Ellipse 253" cx="27.5" cy="27" r="27" fill="#11141A"/>
<g id="Group 48096018">
<path id="Vector" fill-rule="evenodd" clip-rule="evenodd" d="M34.6824 5.51019L34.7444 5.60812L35.824 11.6586L35.8251 11.6604L37.2744 19.7853L37.2714 19.7824L37.6914 22.1356L40.0369 35.2935L39.5104 43.2374L4.9082 30.6968L32.8585 7.05187L34.6824 5.51019ZM34.7488 5.60705L35.8255 11.6578L40.4306 18.8124L37.2744 19.7853L37.6923 22.1387L40.9808 21.127L40.0372 35.2968L40.0375 35.2982L39.5104 43.2374L41.5874 43.9917L41.8267 44.045L43.48 19.1715L34.7488 5.60705ZM12.4388 27.4334L33.1158 9.93923L34.994 20.4857L35.414 22.839L38.5373 40.359L10.9717 30.3705L35.4129 22.8388L34.994 20.4857L12.4388 27.4334ZM7.17091 29.0583L6.88986 29.1448L7.58493 31.4149L10.7988 30.4236L7.58618 31.4117L6.89113 29.1446L7.17091 29.0583Z" fill="url(#paint0_linear_1623_61164)"/>
</g>
</g>
<defs>
<linearGradient id="paint0_linear_1623_61164" x1="4.9082" y1="5.51019" x2="44.6813" y2="6.79274" gradientUnits="userSpaceOnUse">
<stop stop-color="#7266FF"/>
<stop offset="1" stop-color="#5F28FD"/>
</linearGradient>
</defs>
</svg>
